<svg width="47" height="46" viewBox="0 0 47 46" fill="none" xmlns="http://www.w3.org/2000/svg">
<g clip-path="url(#clip0_311_6706)">
<path d="M35.4835 0L11.6193 7.87598C2.75035 10.8055 -2.06922 20.3836 0.854809 29.269L1.34769 30.7675L35.4835 0Z" fill="#6AE3A6"/>
<path d="M35.4829 0L45.5731 23.0514C49.3215 31.62 45.4269 41.611 36.8732 45.3663L35.4307 45.999L35.4829 0Z" fill="#6AE3A6"/>
<path d="M25.1195 17.7072V17.7053L14.6409 23.7507C10.7463 25.998 9.4082 30.9817 11.6504 34.8835L12.0283 35.5409L25.1195 17.7072Z" fill="#6AE3A6"/>
<path d="M29.5614 19.4998H29.5643L31.5871 31.4422C32.3392 35.8806 29.3572 40.0898 24.9261 40.8433L24.1787 40.9698L29.5605 19.4998H29.5614Z" fill="#6AE3A6"/>
</g>
<defs>
<clipPath id="clip0_311_6706">
<rect width="47" height="46" fill="white"/>
</clipPath>
</defs>
</svg>
