<svg width="191" height="186" viewBox="0 0 191 186" fill="none" xmlns="http://www.w3.org/2000/svg">
<path d="M143.48 0L46.9833 31.847C11.1212 43.6925 -8.36701 82.4222 3.45647 118.351L5.44945 124.41L143.48 0Z" fill="#6AE3A6"/>
<path d="M143.481 0L184.281 93.2097C199.438 127.857 183.69 168.257 149.103 183.442L143.27 186L143.481 0Z" fill="#6AE3A6"/>
<path d="M101.569 71.6002V71.5925L59.1981 96.0376C43.4501 105.125 38.0395 125.276 47.1058 141.054L48.6342 143.712L101.569 71.6002Z" fill="#6AE3A6"/>
<path d="M119.537 78.8485H119.548L127.728 127.138C130.769 145.086 118.711 162.106 100.794 165.152L97.7715 165.664L119.533 78.8485H119.537Z" fill="#6AE3A6"/>
</svg>
