<svg width="21" height="21" viewBox="0 0 21 21" fill="none" xmlns="http://www.w3.org/2000/svg">
<mask id="mask0_1440_16717" style="mask-type:alpha" maskUnits="userSpaceOnUse" x="0" y="0" width="21" height="21">
<rect width="20.5714" height="20.5714" rx="10.2857" fill="#D9D9D9"/>
</mask>
<g mask="url(#mask0_1440_16717)">
<path d="M11.5291 16.8858C10.8219 17.5199 9.75067 17.5199 9.04342 16.8858C7.60056 15.5858 6.4077 14.4643 5.46484 13.5215C4.52199 12.5786 3.77199 11.7322 3.21484 10.9822C2.6577 10.2322 2.26842 9.54291 2.04699 8.91434C1.82556 8.28577 1.71484 7.64291 1.71484 6.98577C1.71484 5.64291 2.16484 4.52148 3.06484 3.62148C3.96484 2.72148 5.08627 2.27148 6.42913 2.27148C7.17199 2.27148 7.87913 2.42863 8.55056 2.74291C9.59623 3.23237 10.9763 3.23237 12.022 2.74291C12.6934 2.42863 13.4006 2.27148 14.1434 2.27148C15.4863 2.27148 16.6077 2.72148 17.5077 3.62148C18.4077 4.52148 18.8577 5.64291 18.8577 6.98577C18.8577 7.64291 18.747 8.28577 18.5256 8.91434C18.3041 9.54291 17.9148 10.2322 17.3577 10.9822C16.8006 11.7322 16.0506 12.5786 15.1077 13.5215C14.1648 14.4643 12.972 15.5858 11.5291 16.8858ZM6.90056 12.5251C8.77241 14.3818 11.8001 14.3818 13.672 12.5251C14.5577 11.6465 15.2577 10.8822 15.772 10.2322C16.2863 9.5822 16.6434 9.00363 16.8434 8.49648C17.0434 7.98934 17.1434 7.48577 17.1434 6.98577C17.1434 6.12863 16.8577 5.41434 16.2863 4.84291C15.7148 4.27148 15.0006 3.98577 14.1434 3.98577C13.472 3.98577 12.8506 4.17506 12.2791 4.55363C11.9592 4.76556 11.6953 5.00996 11.4873 5.28682C11.1936 5.67783 10.7753 6.00006 10.2863 6.00006C9.79723 6.00006 9.37895 5.67783 9.08523 5.28682C8.87726 5.00996 8.61332 4.76556 8.29342 4.55363C7.72199 4.17506 7.10056 3.98577 6.42913 3.98577C5.57199 3.98577 4.8577 4.27148 4.28627 4.84291C3.71484 5.41434 3.42913 6.12863 3.42913 6.98577C3.42913 7.48577 3.52913 7.98934 3.72913 8.49648C3.92913 9.00363 4.28627 9.5822 4.80056 10.2322C5.31484 10.8822 6.01484 11.6465 6.90056 12.5251Z" fill="#1C1B1F"/>
</g>
</svg>
