<svg width="275" height="59" viewBox="0 0 275 59" fill="none" xmlns="http://www.w3.org/2000/svg">
<path d="M72.264 38.888L72.024 33.032L91.08 13.4H96.552L81.816 28.952L79.128 31.928L72.264 38.888ZM68.04 47V13.4H72.84V47H68.04ZM91.848 47L78.072 30.968L81.288 27.416L97.464 47H91.848ZM102.54 47V13.4H107.34V42.824H125.532V47H102.54ZM131.04 47V13.4H135.84V47H131.04ZM150.123 38.888L149.883 33.032L168.939 13.4H174.411L159.675 28.952L156.987 31.928L150.123 38.888ZM145.899 47V13.4H150.699V47H145.899ZM169.707 47L155.931 30.968L159.147 27.416L175.323 47H169.707Z" fill="white"/>
<path d="M173.952 47L189.168 13.4H193.92L209.184 47H204.144L190.56 16.088H192.48L178.896 47H173.952ZM180.432 38.6L181.728 34.76H200.64L202.032 38.6H180.432ZM222.111 47L207.327 13.4H212.511L226.095 44.408H223.119L236.799 13.4H241.599L226.863 47H222.111ZM239.718 47L254.934 13.4H259.686L274.95 47H269.91L256.326 16.088H258.246L244.662 47H239.718ZM246.198 38.6L247.494 34.76H266.406L267.798 38.6H246.198Z" fill="#65E4A3"/>
<g clip-path="url(#clip0_330_8312)">
<path d="M35.483 7L11.6188 14.876C2.74986 17.8055 -2.06971 27.3836 0.854321 36.269L1.3472 37.7675L35.483 7Z" fill="#6AE3A6"/>
<path d="M35.4834 7L45.5736 30.0514C49.3219 38.62 45.4274 48.611 36.8737 52.3663L35.4312 52.999L35.4834 7Z" fill="#6AE3A6"/>
<path d="M25.1195 24.707V24.7051L14.6409 30.7505C10.7463 32.9978 9.4082 37.9814 11.6504 41.8832L12.0283 42.5407L25.1195 24.707Z" fill="#6AE3A6"/>
<path d="M29.5614 26.5H29.5643L31.5871 38.4424C32.3392 42.8809 29.3572 47.09 24.9261 47.8436L24.1787 47.9701L29.5605 26.5H29.5614Z" fill="#6AE3A6"/>
</g>
<defs>
<clipPath id="clip0_330_8312">
<rect width="47" height="46" fill="white" transform="translate(0 7)"/>
</clipPath>
</defs>
</svg>
