<svg width="47" height="46" viewBox="0 0 47 46" fill="none" xmlns="http://www.w3.org/2000/svg">
<g clip-path="url(#clip0_311_6292)">
<path d="M35.483 0L11.6188 7.87598C2.74986 10.8055 -2.06971 20.3836 0.854321 29.269L1.3472 30.7675L35.483 0Z" fill="#6AE3A6"/>
<path d="M35.4834 0L45.5736 23.0514C49.3219 31.62 45.4274 41.611 36.8737 45.3663L35.4312 45.999L35.4834 0Z" fill="#6AE3A6"/>
<path d="M25.1195 17.7072V17.7053L14.6409 23.7507C10.7463 25.998 9.4082 30.9816 11.6504 34.8834L12.0283 35.5409L25.1195 17.7072Z" fill="#6AE3A6"/>
<path d="M29.5614 19.4997H29.5643L31.5871 31.4421C32.3392 35.8805 29.3572 40.0897 24.9261 40.8432L24.1787 40.9698L29.5605 19.4997H29.5614Z" fill="#6AE3A6"/>
</g>
<defs>
<clipPath id="clip0_311_6292">
<rect width="47" height="46" fill="white"/>
</clipPath>
</defs>
</svg>
