<svg width="37" height="39" viewBox="0 0 37 39" fill="none" xmlns="http://www.w3.org/2000/svg">
<rect width="37" height="39" rx="18.5" fill="#2E2E2E"/>
<path d="M8.53866 28.3207C9.95533 27.2696 11.4987 26.4395 13.1687 25.8303C14.8384 25.2214 16.6156 24.917 18.5003 24.917C20.385 24.917 22.1623 25.2214 23.832 25.8303C25.502 26.4395 27.0453 27.2696 28.462 28.3207C29.4981 27.1819 30.3191 25.8635 30.9249 24.3657C31.5307 22.868 31.8337 21.2462 31.8337 19.5003C31.8337 15.8059 30.535 12.66 27.9378 10.0628C25.3406 7.4656 22.1948 6.16699 18.5003 6.16699C14.8059 6.16699 11.66 7.4656 9.06283 10.0628C6.4656 12.66 5.16699 15.8059 5.16699 19.5003C5.16699 21.2462 5.46991 22.868 6.07574 24.3657C6.68158 25.8635 7.50255 27.1819 8.53866 28.3207ZM18.5003 20.7503C16.9789 20.7503 15.6959 20.2278 14.6512 19.1828C13.6062 18.1381 13.0837 16.855 13.0837 15.3337C13.0837 13.8123 13.6062 12.5292 14.6512 11.4845C15.6959 10.4395 16.9789 9.91699 18.5003 9.91699C20.0217 9.91699 21.3048 10.4395 22.3495 11.4845C23.3945 12.5292 23.917 13.8123 23.917 15.3337C23.917 16.855 23.3945 18.1381 22.3495 19.1828C21.3048 20.2278 20.0217 20.7503 18.5003 20.7503ZM18.5003 35.3337C16.3017 35.3337 14.2392 34.9202 12.3128 34.0932C10.3864 33.2663 8.71074 32.1402 7.28574 30.7149C5.86046 29.2899 4.73435 27.6142 3.90741 25.6878C3.08046 23.7614 2.66699 21.6989 2.66699 19.5003C2.66699 17.3017 3.08046 15.2392 3.90741 13.3128C4.73435 11.3864 5.86046 9.71074 7.28574 8.28574C8.71074 6.86046 10.3864 5.73435 12.3128 4.90741C14.2392 4.08047 16.3017 3.66699 18.5003 3.66699C20.6989 3.66699 22.7614 4.08047 24.6878 4.90741C26.6142 5.73435 28.2899 6.86046 29.7149 8.28574C31.1402 9.71074 32.2663 11.3864 33.0932 13.3128C33.9202 15.2392 34.3337 17.3017 34.3337 19.5003C34.3337 21.6989 33.9202 23.7614 33.0932 25.6878C32.2663 27.6142 31.1402 29.2899 29.7149 30.7149C28.2899 32.1402 26.6142 33.2663 24.6878 34.0932C22.7614 34.9202 20.6989 35.3337 18.5003 35.3337Z" fill="#65E4A3"/>
</svg>
